<svg width="150mm" height="150mm" version="1.1" viewBox="0 0 150 150" xml:space="preserve" xmlns="http://www.w3.org/2000/svg"><g stroke="#000000">
  <path d="m24.992 20.039c-2.7381 0-4.9426 2.2211-4.9426 4.98v105.3c0.12191 1.8409-0.15063 4.261 3.7979 0.48374l18.779-16.066c1.3881-1.3212 1.7117-2.3151 1.7224-3.8099v-68.497h63.942c3.2996-0.14085 5.4649-1.5285 7.3046-3.274l15.768-17.098c0.9863-1.0899 0.26035-2.0156-1.2168-2.021z" fill="none" stroke-width="5" style="stroke-width:10"/>
  <path d="m20.606 15.737c-2.7932 0-5.0421 2.2488-5.0421 5.0421v106.62c0.12436 1.8639-0.15366 4.3141 3.8744 0.48977l19.157-16.266c1.416-1.3377 1.7461-2.344 1.757-3.8574v-69.351h65.229c3.366-0.1426 5.5749-1.5476 7.4516-3.3148l16.086-17.311c1.0062-1.1035 0.26559-2.0407-1.2413-2.0462z" fill="currentColor" stroke-width="1.5"/>
  <rect x="65.01" y="65.393" width="23.554" height="23.554" rx="3.0929" ry="3.0929" fill="none" stroke-width="4" style="stroke-width:10"/>
  <rect x="60.839" y="61.368" width="23.554" height="23.554" rx="3.0929" ry="3.0929" fill="currentColor" stroke-width="1.5"/>
</g></svg>
