<?xml version="1.0" encoding="UTF-8" standalone="no"?>
<!-- Created with Inkscape (http://www.inkscape.org/) -->

<svg
   width="150mm"
   height="150mm"
   viewBox="0 0 150 150"
   version="1.1"
   id="svg5"
   xml:space="preserve"
   sodipodi:docname="logo.svg"
   inkscape:version="1.2.2 (b0a84865, 2022-12-01)"
   xmlns:inkscape="http://www.inkscape.org/namespaces/inkscape"
   xmlns:sodipodi="http://sodipodi.sourceforge.net/DTD/sodipodi-0.dtd"
   xmlns="http://www.w3.org/2000/svg"
   xmlns:svg="http://www.w3.org/2000/svg"><sodipodi:namedview
     id="namedview7"
     pagecolor="#505050"
     bordercolor="#eeeeee"
     borderopacity="1"
     inkscape:showpageshadow="0"
     inkscape:pageopacity="0"
     inkscape:pagecheckerboard="0"
     inkscape:deskcolor="#505050"
     inkscape:document-units="mm"
     showgrid="false"
     inkscape:zoom="0.83814832"
     inkscape:cx="181.35215"
     inkscape:cy="289.32827"
     inkscape:window-width="1512"
     inkscape:window-height="813"
     inkscape:window-x="0"
     inkscape:window-y="38"
     inkscape:window-maximized="0"
     inkscape:current-layer="layer1" /><defs
     id="defs2" /><g
     inkscape:label="Layer 1"
     inkscape:groupmode="layer"
     id="layer1"
     transform="translate(-9.1512175,-9.1512175)"><rect
       style="fill:#ffffff;fill-opacity:1;stroke:none;stroke-width:0.673997;stroke-dasharray:0.673997, 1.34799"
       id="rect2312"
       width="150"
       height="150"
       x="9.1512175"
       y="9.1512175"
       rx="2.7102244"
       ry="2.5053821"
       inkscape:export-filename="../images/app-icon/app-icon-256x256-win.png"
       inkscape:export-xdpi="43.349335"
       inkscape:export-ydpi="43.349335" /><path
       id="path1756"
       style="fill:none;fill-opacity:1;stroke:#000000;stroke-width:5;stroke-dasharray:none;stroke-dashoffset:0;stroke-opacity:1"
       d="m 34.14302,29.190317 c -2.738117,0 -4.942592,2.221148 -4.942592,4.979978 V 139.47248 c 0.12191,1.84092 -0.150631,4.26096 3.797919,0.48374 l 18.779325,-16.06574 c 1.388111,-1.32123 1.711668,-2.3151 1.722357,-3.80992 V 99.134579 76.498825 51.583116 h 63.942091 c 3.2996,-0.140847 5.46487,-1.528496 7.30456,-3.274016 l 15.76823,-17.097762 c 0.9863,-1.089934 0.26035,-2.015581 -1.2168,-2.021021 z"
       sodipodi:nodetypes="sscccccccccccs" /><path
       id="rect908"
       style="fill:#deffa0;fill-opacity:1;stroke:#000000;stroke-width:1.5;stroke-dasharray:none;stroke-dashoffset:0;stroke-opacity:1"
       d="m 31.344914,26.476017 c -2.793226,0 -5.042069,2.248842 -5.042069,5.04207 V 138.13322 c 0.124364,1.86387 -0.153663,4.31409 3.874358,0.48977 l 19.157288,-16.26605 c 1.416049,-1.33771 1.746118,-2.34397 1.757022,-3.85743 V 97.292366 74.374385 49.148018 h 65.229017 c 3.36601,-0.142604 5.57486,-1.547554 7.45158,-3.314838 L 139.8577,28.522237 c 1.00615,-1.103524 0.26559,-2.040712 -1.24129,-2.04622 z"
       sodipodi:nodetypes="sscccccccccccs" /><rect
       style="fill:none;fill-opacity:1;stroke:#000000;stroke-width:4;stroke-dasharray:none;stroke-dashoffset:0;stroke-opacity:1"
       id="rect1409"
       width="23.553905"
       height="23.553905"
       x="74.161049"
       y="74.544258"
       rx="3.0929372"
       ry="3.0929372" /><rect
       style="fill:#deffa0;fill-opacity:1;stroke:#000000;stroke-width:1.5;stroke-dasharray:none;stroke-dashoffset:0;stroke-opacity:1"
       id="rect1758"
       width="23.553905"
       height="23.553905"
       x="72.636345"
       y="72.635605"
       rx="3.0929372"
       ry="3.0929372" /></g></svg>
